<?xml version="1.0" encoding="UTF-8" standalone="no"?>
<!-- Created with Inkscape (http://www.inkscape.org/) -->

<svg
   width="210mm"
   height="297mm"
   viewBox="0 0 210 297"
   version="1.1"
   id="svg5"
   xml:space="preserve"
   inkscape:version="1.2.2 (732a01da63, 2022-12-09)"
   sodipodi:docname="Logo.svg"
   xmlns:inkscape="http://www.inkscape.org/namespaces/inkscape"
   xmlns:sodipodi="http://sodipodi.sourceforge.net/DTD/sodipodi-0.dtd"
   xmlns="http://www.w3.org/2000/svg"
   xmlns:svg="http://www.w3.org/2000/svg"><sodipodi:namedview
     id="namedview7"
     pagecolor="#505050"
     bordercolor="#eeeeee"
     borderopacity="1"
     inkscape:showpageshadow="0"
     inkscape:pageopacity="0"
     inkscape:pagecheckerboard="0"
     inkscape:deskcolor="#505050"
     inkscape:document-units="mm"
     showgrid="false"
     inkscape:zoom="0.54800776"
     inkscape:cx="286.4923"
     inkscape:cy="567.51022"
     inkscape:window-width="1920"
     inkscape:window-height="1017"
     inkscape:window-x="-8"
     inkscape:window-y="-8"
     inkscape:window-maximized="1"
     inkscape:current-layer="layer1" /><defs
     id="defs2" /><g
     inkscape:label="Capa 1"
     inkscape:groupmode="layer"
     id="layer1"><path
       style="fill:#ffffff;stroke-width:0.26354"
       d="m 117.30973,189.27858 c -2.33062,-0.85992 -3.88022,-3.34204 -4.28212,-6.85904 -0.98732,-8.64001 3.20775,-12.86715 11.03019,-11.11451 l 2.23125,0.49992 -0.0865,0.90859 c -0.14469,1.52016 -0.44939,1.65544 -2.91129,1.29261 -3.82701,-0.56403 -5.16413,-0.0705 -6.24278,2.30431 -0.601,1.32317 -0.65118,1.70495 -0.56211,4.27706 0.16493,4.76275 1.49009,6.53256 4.71432,6.29619 2.50157,-0.1834 2.58112,-0.28605 2.47907,-3.19951 -0.10866,-3.10219 0.0229,-3.32017 1.8874,-3.12646 l 1.37813,0.14319 v 3.76109 3.76109 l -2.29688,0.70651 c -2.51865,0.77473 -5.7662,0.92915 -7.33869,0.34896 z m 7.33869,-0.97151 1.77188,-0.60417 v -3.27007 -3.27006 h -1.05 -1.05 v 2.87901 2.879 l -1.16624,0.296 c -0.64143,0.16279 -1.76949,0.29599 -2.50679,0.29599 -3.46321,0 -4.85704,-2.3246 -4.68605,-7.81524 0.11703,-3.75769 0.72837,-5.20149 2.54547,-6.01166 1.03164,-0.45996 1.52261,-0.50965 3.57049,-0.36136 1.3059,0.0946 2.61062,0.20022 2.89937,0.23479 0.39045,0.0467 0.54533,-0.11365 0.60433,-0.62581 0.0765,-0.66379 5.3e-4,-0.7044 -2.1,-1.12469 -2.66958,-0.53412 -3.39634,-0.53935 -5.04148,-0.0363 -1.77031,0.54131 -2.8506,1.44435 -3.8644,3.23037 -0.81142,1.42946 -0.86791,1.69767 -0.97092,4.60979 -0.0875,2.47496 -0.0145,3.39612 0.36615,4.61584 0.61956,1.98536 1.80122,3.53418 3.26661,4.28158 1.01302,0.51668 1.4884,0.58653 3.40846,0.5008 1.39563,-0.0623 2.89483,-0.32588 4.00312,-0.70379 z m 39.57188,0.80852 c -2.63311,-1.40564 -3.9375,-4.30314 -3.9375,-8.74657 0,-6.36309 2.60136,-9.54714 7.77421,-9.51558 1.40578,0.009 4.43608,0.56791 4.74081,0.87506 0.0689,0.0694 0.0225,0.64295 -0.10299,1.27451 l -0.22821,1.1483 -1.03878,-0.13229 c -0.57134,-0.0728 -1.94712,-0.13169 -3.05731,-0.13096 -1.86685,0.001 -2.07798,0.0588 -2.80977,0.76541 -1.13436,1.09541 -1.58368,2.22469 -1.76487,4.4356 -0.31889,3.89123 0.82935,6.87985 2.90914,7.57192 0.85707,0.2852 1.35158,0.27033 3.12335,-0.0939 1.15778,-0.23801 2.25054,-0.48902 2.42836,-0.5578 0.37183,-0.14381 0.75014,0.48337 1,1.65786 l 0.17356,0.81582 -1.95734,0.57324 c -2.54418,0.74511 -5.91642,0.77273 -7.25266,0.0594 z m 6.59982,-0.55569 c 1.7487,-0.52492 2.03084,-0.79991 1.57093,-1.53114 -0.18228,-0.2898 -0.59067,-0.27169 -2.32,0.10287 -4.58975,0.99412 -6.52663,-0.643 -6.82032,-5.76478 -0.25162,-4.38816 0.64278,-6.90311 2.77605,-7.80593 0.72311,-0.30603 1.56055,-0.36843 3.50915,-0.26149 2.39087,0.13123 2.55937,0.10728 2.55937,-0.36372 0,-0.2773 0.005,-0.59349 0.012,-0.70263 0.007,-0.10914 -0.67264,-0.34207 -1.50937,-0.51762 -4.46516,-0.93681 -7.30483,0.28111 -8.9581,3.84209 -0.64086,1.38034 -0.69782,1.77645 -0.69191,4.81147 0.006,2.86409 0.0867,3.48837 0.60565,4.65862 0.63468,1.43133 2.01774,2.94414 3.32301,3.63477 1.11791,0.59149 3.78482,0.54549 5.94358,-0.10251 z M 55.807795,181.29506 v -8.06979 h -2.75625 -2.75625 v -1.0628 -1.0628 l 6.75938,0.0706 6.75937,0.0706 v 0.92604 0.92605 l -2.69062,0.0754 -2.69063,0.0754 v 8.06053 8.06054 h -1.3125 -1.3125 z m 2.1,-0.52917 v -8.06979 h 2.75625 c 2.58125,0 2.75625,-0.0336 2.75625,-0.52917 0,-0.51446 -0.175,-0.52916 -6.3,-0.52916 -6.125,0 -6.3,0.0147 -6.3,0.52916 0,0.49557 0.175,0.52917 2.75625,0.52917 h 2.75625 v 8.06979 8.06979 h 0.7875 0.7875 z m 7.875,-0.52916 v -9.15578 l 1.37813,0.08 1.37812,0.08 v 3.70417 3.70417 l 3.87188,0.0732 3.87187,0.0732 v -3.85736 -3.85735 l 1.37813,0.08 1.37812,0.08 v 8.99584 8.99583 h -1.3125 -1.3125 l -0.0723,-4.16719 -0.0723,-4.16719 h -3.7715 c -3.34677,0 -3.79131,0.052 -3.94741,0.46207 -0.0968,0.25413 -0.14969,2.12937 -0.11763,4.16718 l 0.0583,3.70513 -1.35421,0.08 -1.35421,0.08 z m 2.1,4.36562 v -4.23333 h 4.4625 4.4625 v 4.23333 4.23333 h 0.7875 0.7875 v -8.61653 -8.61653 l -0.72187,0.0837 -0.72188,0.0837 -0.0729,3.77667 -0.0729,3.77668 -4.38963,-0.0725 -4.38963,-0.0725 -0.0728,-3.77031 -0.0728,-3.77031 h -0.7803 -0.78029 v 8.59896 8.59895 h 0.7875 0.7875 z m 14.9625,-4.36026 v -9.13349 h 5.38125 5.38125 v 1.05833 1.05834 h -4.06875 -4.06875 v 2.77812 2.77813 h 3.9375 3.9375 v 1.05833 1.05833 h -3.9375 -3.9375 v 3.16829 3.16828 l 4.11518,0.0729 4.11517,0.0729 0.0192,0.92604 0.0192,0.92604 -5.44688,0.0715 -5.44687,0.0715 v -9.1335 z m 10.2375,8.06443 c 0,-0.50641 -0.175,-0.52917 -4.06875,-0.52917 h -4.06875 v -3.70417 -3.70416 h 3.9375 c 3.7625,0 3.9375,-0.0235 3.9375,-0.52917 0,-0.50565 -0.175,-0.52917 -3.9375,-0.52917 h -3.9375 v -3.30729 -3.30729 h 4.06875 c 3.89375,0 4.06875,-0.0228 4.06875,-0.52917 0,-0.51009 -0.175,-0.52916 -4.85625,-0.52916 h -4.85625 v 8.59896 8.59895 h 4.85625 c 4.68125,0 4.85625,-0.0191 4.85625,-0.52916 z m 3.38142,0.7408 c -0.0458,-0.50687 -0.0949,-0.34439 1.22324,-4.04809 0.67329,-1.89178 1.62947,-4.63021 2.12484,-6.08542 0.495375,-1.45521 1.120035,-3.24115 1.388145,-3.96875 0.2681,-0.72761 0.68922,-1.89344 0.93581,-2.59075 l 0.44836,-1.26784 1.85918,0.0772 c 1.7277,0.0718 1.8727,0.12399 2.05036,0.73867 0.10515,0.3638 0.62622,1.85208 1.15793,3.30729 0.53171,1.45521 1.31803,3.65787 1.74738,4.89479 0.42935,1.23693 0.87851,2.48709 0.99813,2.77813 0.67241,1.63591 2.11021,5.8029 2.11021,6.11574 0,0.27395 -0.42204,0.36655 -1.67059,0.36655 h -1.67058 l -0.39743,-1.12448 c -0.21858,-0.61846 -0.56439,-1.60073 -0.76845,-2.18281 l -0.37102,-1.05833 h -3.39794 -3.39793 l -0.69418,2.11666 -0.694175,2.11667 -1.4751,0.0793 c -1.06411,0.0572 -1.48377,-0.0165 -1.50619,-0.26459 z m 3.16688,-2.46059 0.671215,-2.11667 h 3.93347 3.93346 l 0.69382,2.11667 0.69381,2.11666 1.08171,0.0814 c 1.21813,0.0916 1.22612,0.0757 0.70024,-1.39543 -0.20981,-0.58695 -1.16426,-3.26983 -2.121,-5.96197 -0.95673,-2.69214 -2.13066,-5.96635 -2.60872,-7.27604 l -0.8692,-2.38125 -1.31323,-0.079 -1.31323,-0.079 -0.65962,1.79879 c -0.36279,0.98934 -0.8603,2.3941 -1.10559,3.12171 -0.24528,0.7276 -0.54193,1.56104 -0.65923,1.85208 -0.11729,0.29104 -0.765035,2.13651 -1.439415,4.10104 -1.07245,3.12413 -1.65442,4.74941 -2.16181,6.03735 -0.10241,0.25994 0.11854,0.32735 0.86734,0.26458 l 1.00476,-0.0842 z m 1.326705,-3.77297 c 0,-0.24587 2.25996,-7.31853 2.66228,-8.33172 0.1589,-0.40018 0.42772,-0.72761 0.59737,-0.72761 0.30864,0 3.05027,7.92409 3.04379,8.7974 -0.003,0.41506 -0.32975,0.46302 -3.15344,0.46302 -1.7325,0 -3.15,-0.0905 -3.15,-0.20109 z m 5.68902,-0.65881 c -0.0714,-0.1819 -0.63024,-1.85497 -1.24197,-3.71793 -0.61172,-1.86297 -1.19978,-3.29172 -1.30679,-3.175 -0.16866,0.18396 -2.35276,6.77787 -2.35276,7.10311 0,0.0663 1.13203,0.12055 2.51562,0.12055 1.90669,0 2.48423,-0.08 2.3859,-0.33073 z m 23.18598,-1.91822 v -9.12813 h 5.64375 5.64375 v 1.32292 1.32291 h -3.9375 -3.9375 v 2.38125 2.38125 h 3.80625 3.80625 v 1.32292 1.32292 h -3.80625 -3.80625 v 2.91041 2.91042 h 3.9375 3.9375 v 1.19063 1.19062 h -5.64375 -5.64375 z m 10.7625,7.9375 v -0.66146 h -3.9375 -3.9375 v -3.43959 -3.43958 h 3.80625 3.80625 v -0.79375 -0.79375 h -3.80625 -3.80625 v -2.90334 -2.90335 l 3.87187,-0.0732 3.87188,-0.0732 v -0.66146 -0.66146 l -5.05313,-0.0719 -5.05312,-0.0719 v 8.60467 8.60467 h 5.11875 5.11875 z m 3.0625,1.01423 c -0.0962,-0.097 -0.175,-4.20467 -0.175,-9.12812 v -8.95174 l 2.16563,0.005 2.16562,0.005 1.79301,3.76485 c 0.98615,2.07066 2.48749,5.19359 3.33631,6.93984 l 1.5433,3.175 0.0106,-6.95914 0.0106,-6.95914 1.37813,0.08 1.37812,0.08 v 8.99583 8.99584 l -2.11601,0.076 c -1.98032,0.0712 -2.13495,0.0372 -2.41124,-0.52916 -0.16237,-0.33287 -1.20655,-2.51021 -2.32039,-4.83854 -1.11384,-2.32833 -2.47988,-5.17954 -3.03563,-6.336 l -1.01048,-2.10267 v 6.93131 6.93132 h -1.26875 c -0.69781,0 -1.3475,-0.0794 -1.44375,-0.17639 z m 2.1875,-7.62882 c 0,-5.64715 0.0735,-7.2749 0.32812,-7.27095 0.18047,0.003 1.26138,1.93756 2.40202,4.29947 1.14064,2.36192 2.7252,5.63385 3.52124,7.27096 l 1.44735,2.97656 h 1.66677 1.66677 l -0.0693,-8.53281 -0.0693,-8.53281 -0.85313,-0.0829 -0.85312,-0.0829 v 7.2928 c 0,6.00732 -0.0635,7.29281 -0.36051,7.29281 -0.34446,0 -0.93457,-1.14491 -5.42652,-10.52836 l -1.9369,-4.04606 -1.58491,0.0773 -1.58491,0.0773 -0.0693,8.53281 -0.0693,8.53281 h 0.92238 0.92239 z m 34.3875,3.68652 c 0,-3.98563 -0.0212,-4.14672 -0.65625,-4.98592 -0.36094,-0.47697 -0.65625,-0.95666 -0.65625,-1.06598 0,-0.10932 -0.26578,-0.57186 -0.59063,-1.02787 -0.66488,-0.93335 -1.1401,-1.70878 -1.40664,-2.29529 -0.0992,-0.21828 -0.42978,-0.75406 -0.73461,-1.19062 -0.76815,-1.10008 -1.73062,-2.92266 -1.73062,-3.27717 0,-0.18828 0.65865,-0.29471 1.82375,-0.29471 h 1.82376 l 1.24735,2.3151 c 0.68605,1.27331 1.62245,2.94641 2.08089,3.71801 l 0.83353,1.40289 0.49224,-0.91552 c 0.27072,-0.50353 1.20098,-2.17915 2.06723,-3.72359 l 1.575,-2.80807 1.44375,0.0717 c 1.32024,0.0656 1.43845,0.12238 1.3818,0.66376 -0.0341,0.32561 -0.71329,1.59925 -1.50938,2.83032 -0.79608,1.23106 -1.44742,2.30179 -1.44742,2.3794 0,0.0776 -0.41344,0.79254 -0.91875,1.58874 -0.50531,0.7962 -0.91875,1.55784 -0.91875,1.69253 0,0.13469 -0.17719,0.39312 -0.39375,0.57427 -0.31876,0.26665 -0.39375,1.10423 -0.39375,4.39802 v 4.06865 h -1.70625 -1.70625 z m 2.8875,-0.21029 v -3.79982 l 1.00061,-1.82258 c 0.55033,-1.00242 1.79065,-3.10567 2.75625,-4.67388 0.9656,-1.56822 1.75564,-2.91486 1.75564,-2.99254 0,-0.0777 -0.42627,-0.10427 -0.94727,-0.0591 -0.80041,0.0694 -1.03529,0.24619 -1.51508,1.14045 -2.15607,4.01858 -3.65228,6.48229 -3.93669,6.48229 -0.18259,0 -1.3112,-1.7264 -2.50802,-3.83645 l -2.17604,-3.83646 h -1.1522 c -0.63371,0 -1.1522,0.0545 -1.1522,0.12113 0,0.0666 1.24031,2.15524 2.75625,4.64137 l 2.75625,4.52023 v 3.95759 3.95759 h 1.18125 1.18125 z M 28.114045,174.10916 c -1.85661,-0.25948 -3.91295,-1.69798 -5.35034,-3.7428 l -0.68716,-0.97755 v -11.1125 c 0,-10.90564 0.0106,-11.13252 0.57111,-12.18788 0.6428,-1.21038 3.33673,-4.08313 3.83131,-4.08563 0.17742,-7.9e-4 0.67696,-0.20925 1.11008,-0.46302 0.71943,-0.42151 2.08326,-0.46815 15.77893,-0.53955 14.12233,-0.0736 15.02018,-0.10629 15.4875,-0.56324 0.27284,-0.2668 1.79545,-1.89128 3.38357,-3.60997 1.58813,-1.71868 3.47813,-3.73973 4.2,-4.4912 0.72188,-0.75148 2.67094,-2.82388 4.33125,-4.60535 1.66031,-1.78146 3.66844,-3.91614 4.4625,-4.74372 0.79406,-0.82759 2.1525,-2.31154 3.01875,-3.29768 3.77216,-4.29423 6.98482,-5.37618 10.75795,-3.62304 1.58769,0.73769 2.57708,1.7861 3.50439,3.7134 l 0.70016,1.45521 v 19.05 19.05 l -1.90312,0.0777 -1.90313,0.0777 v -18.74405 -18.74405 l -0.67359,-1.04707 c -0.78658,-1.22271 -1.65707,-1.70468 -3.07884,-1.70468 -1.57191,0 -2.28343,0.60334 -7.79757,6.61208 -1.66031,1.80924 -3.93422,4.20625 -5.05312,5.32669 -1.11891,1.12044 -2.03438,2.10971 -2.03438,2.19837 0,0.0887 -0.79734,0.97775 -1.77187,1.97574 -2.66721,2.73141 -5.05313,5.30309 -5.05313,5.44655 0,0.0702 3.10078,0.15935 6.89063,0.19815 l 6.89062,0.0705 v 1.85208 1.85209 l -8.82603,0.0696 -8.82604,0.0696 -2.98646,3.17139 c -1.64256,1.74427 -4.10866,4.37553 -5.48022,5.84724 -1.37156,1.47171 -3.32062,3.54354 -4.33125,4.60406 -1.01062,1.06052 -2.98034,3.16044 -4.37715,4.66647 -7.73811,8.34326 -9.04643,9.64654 -10.2572,10.21771 -1.18144,0.55733 -3.21872,0.86349 -4.52815,0.68048 z m 3.94786,-1.18117 c 1.02998,-0.48799 4.45192,-3.73063 7.36465,-6.97876 0.77031,-0.85902 7.26025,-7.79973 10.86874,-11.62366 1.22719,-1.30045 2.4675,-2.61903 2.75625,-2.93017 0.28875,-0.31114 1.8718,-2.01561 3.51789,-3.78771 l 2.99288,-3.22201 h 8.88524 8.88524 v -1.32291 -1.32292 h -7.21875 c -6.70196,0 -7.21838,-0.0332 -7.2136,-0.46302 0.005,-0.43843 0.71442,-1.2546 5.47009,-6.29208 1.1033,-1.16868 3.71882,-3.96532 5.81226,-6.21475 2.09344,-2.24943 5.11572,-5.43065 6.71618,-7.06939 l 2.90992,-2.97951 h 1.7903 c 1.49418,0 1.92939,0.10693 2.63126,0.64652 1.77345,1.36342 1.70234,0.48524 1.70234,21.02315 v 18.547 h 1.31758 1.31757 l -0.0707,-18.98386 -0.0707,-18.98385 -0.61784,-1.18526 c -1.31226,-2.51743 -4.16194,-4.17104 -6.6824,-3.87766 -2.2377,0.26047 -3.37906,1.08107 -7.34502,5.28087 -2.05135,2.1723 -3.7888,4.04136 -3.86099,4.15347 -0.0722,0.1121 -1.97348,2.15095 -4.22511,4.53078 -2.25162,2.37983 -4.75054,5.04134 -5.55316,5.91446 -0.80261,0.87313 -2.39474,2.57443 -3.53807,3.78068 l -2.07877,2.19317 -14.81182,-0.0296 c -14.71934,-0.0294 -14.81989,-0.026 -16.10494,0.55181 -1.85648,0.83469 -3.62885,2.61571 -4.45946,4.48124 l -0.70182,1.57629 0.0772,10.25966 0.0772,10.25966 0.69212,1.05834 c 1.59105,2.43291 3.44614,3.54534 5.93886,3.56133 1.14551,0.007 2.00281,-0.1597 2.82937,-0.55132 z m -4.81236,-2.52548 c -0.47548,-0.23619 -1.1547,-0.92855 -1.50938,-1.53857 l -0.64487,-1.10912 v -9.53559 c 0,-10.62003 0.0196,-10.75782 1.76207,-12.41427 1.60029,-1.52124 2.02305,-1.56002 16.03884,-1.47122 10.6238,0.0673 12.66882,0.13967 12.6,0.44583 -0.0452,0.201 -1.61778,1.99636 -3.49466,3.98967 -1.87687,1.99332 -3.69476,3.93582 -4.03975,4.31668 -0.34498,0.38086 -2.41217,2.58266 -4.59375,4.8929 -2.18157,2.31023 -4.02556,4.2889 -4.09775,4.39704 -0.68852,1.03143 -7.38365,7.75576 -8.02977,8.0648 -1.09229,0.52244 -2.89723,0.50519 -3.99098,-0.0382 z m 3.26939,-0.31247 c 0.74422,-0.22569 2.18774,-1.60772 5.86349,-5.61374 1.66011,-1.80927 3.87495,-4.16769 4.92188,-5.24095 1.04692,-1.07325 1.90349,-2.00375 1.90349,-2.06776 0,-0.064 0.62016,-0.74069 1.37813,-1.50373 0.75796,-0.76303 2.79562,-2.90863 4.52812,-4.768 1.7325,-1.85936 3.67636,-3.93597 4.31969,-4.61469 l 1.16969,-1.23403 -12.19469,-0.0781 c -8.15996,-0.0523 -12.51808,0.0162 -13.17212,0.20696 -1.17006,0.34125 -2.31506,1.3583 -3.06607,2.72346 -0.52922,0.96201 -0.55025,1.35338 -0.55025,10.24015 0,8.95478 0.12796,10.58774 0.82964,10.58774 0.1212,0 0.22036,0.15059 0.22036,0.33463 0,0.42075 1.75121,1.2299 2.625,1.2129 0.36094,-0.007 0.91158,-0.0902 1.22364,-0.18484 z"
       id="path137" /><path
       style="fill:#ffffff;stroke-width:0.912396;stroke:none;stroke-opacity:1"
       d="M 105.83792,654.72844 C 99.058764,653.30486 92.96184,648.81991 88.631012,642.0709 l -2.795804,-4.35688 -0.108263,-38.86047 -0.108264,-38.86046 2.734102,-5.3654 c 3.161962,-6.20502 9.762656,-12.95334 15.660347,-16.01058 l 4.10578,-2.12835 56.69629,-0.2667 56.69629,-0.26672 8.54866,-8.85725 c 4.70176,-4.87149 22.73973,-24.04864 40.08438,-42.6159 17.34465,-18.56725 33.64509,-35.65444 36.2232,-37.97153 6.55381,-5.89027 10.42325,-7.57041 17.5328,-7.61285 9.17001,-0.0548 17.23667,4.93496 22.56412,13.95724 l 2.3361,3.9563 0.45392,71.54446 0.4539,71.54446 h -4.69246 -4.69246 l -0.0162,-64.09581 c -0.0175,-69.47799 -0.45577,-78.95339 -3.81801,-82.55348 -3.49293,-3.74001 -6.56098,-4.80842 -13.8079,-4.80842 h -6.78402 l -21.3901,22.5818 c -36.75446,38.80216 -55.25742,58.81968 -56.47885,61.10194 -0.98542,1.84129 -0.96113,2.337 0.14895,3.03923 0.72954,0.4615 13.13055,0.84538 27.55781,0.85306 l 26.23138,0.014 v 4.56198 4.56198 H 258.3671 224.76753 l -8.59874,9.34751 c -4.7293,5.14113 -18.04203,19.41342 -29.58384,31.7162 -11.54181,12.30279 -26.92753,28.72796 -34.1905,36.50038 -15.20794,16.2747 -27.90466,28.46414 -31.64435,30.38007 -3.28729,1.68414 -10.75952,2.49978 -14.91218,1.62776 z m 12.64122,-10.53017 c 5.46563,-2.87534 91.3719,-93.97604 91.3719,-96.89681 0,-1.81246 -14.72385,-2.31085 -58.84953,-1.99201 l -41.97021,0.30327 -4.35431,2.55952 c -2.39487,1.40774 -5.456132,4.2245 -6.802808,6.25946 -2.403558,3.63202 -2.46054,4.06234 -3.10433,23.44375 -0.360705,10.85911 -0.68671,27.94692 -0.724454,37.97291 l -0.06863,18.22907 2.88239,4.22393 c 1.585315,2.32316 3.740852,4.76305 4.790082,5.42198 4.52348,2.84083 11.9351,3.04998 16.8299,0.47493 z"
       id="path940"
       transform="scale(0.26458333)" /><path
       style="fill:#ffffff;stroke-width:0.912396;stroke:none;stroke-opacity:1"
       d="m 213.50063,682.47209 v -30.56526 h -10.49255 c -6.25092,0 -10.49256,-0.36181 -10.49256,-0.89501 0,-1.64241 3.9607,-1.90261 25.0154,-1.6434 15.72989,0.19365 21.00366,0.53995 21.28924,1.39792 0.28912,0.8686 -2.1399,1.14049 -10.18897,1.14049 h -10.56858 v 30.56526 30.56526 h -2.28099 -2.28099 z"
       id="path942"
       transform="scale(0.26458333)" /><path
       style="fill:#ffffff;stroke-width:0.456198;stroke:none;stroke-opacity:1"
       d="m 250.90886,681.3316 v -32.39005 h 2.73719 2.73718 v 5.17291 c 0,2.84511 0.13492,9.20133 0.29982,14.12494 l 0.29981,8.95202 1.86713,0.23625 c 1.02692,0.12994 8.55826,0.29253 16.73632,0.36132 l 14.86919,0.12508 0.29445,-14.10116 c 0.16196,-7.75564 0.35173,-14.15843 0.42171,-14.22842 0.07,-0.07 1.2013,-0.26973 2.51403,-0.44387 l 2.38676,-0.31662 v 32.44883 32.44882 h -2.73719 -2.73718 V 697.52663 681.3316 h -17.10742 -17.10743 v 16.19503 16.19502 h -2.73718 -2.73719 z"
       id="path944"
       transform="scale(0.26458333)" /><path
       style="fill:#ffffff;stroke-width:0.456198;stroke:none;stroke-opacity:1"
       d="m 315.23277,681.36943 v -32.47769 l 17.54787,0.13895 c 15.99267,0.12664 17.61857,0.20971 18.34567,0.9373 0.75961,0.76012 0.7596,0.83657 -5e-5,1.59669 -0.72045,0.7209 -2.23469,0.81312 -15.60849,0.95061 l -14.81063,0.15226 v 12.73533 12.73533 h 14.10482 c 7.75766,0 14.42955,0.12461 14.82644,0.27691 1.12294,0.43091 0.90568,2.30454 -0.30484,2.62894 -0.56454,0.1513 -7.23644,0.27788 -14.82643,0.28131 l -13.79999,0.006 v 14.37023 14.37024 h 14.34054 c 8.21366,0 14.84049,0.19008 15.51073,0.44491 1.34949,0.51307 1.53249,1.61061 0.37184,2.23008 -0.43909,0.23435 -8.65065,0.57774 -18.24791,0.76308 l -17.44957,0.33697 z"
       id="path946"
       transform="scale(0.26458333)" /><path
       style="fill:#ffffff;stroke-width:0.456198;stroke:none;stroke-opacity:1"
       d="m 367.23933,712.86357 c 0,-0.22104 0.53412,-1.81203 1.18694,-3.53553 0.65282,-1.72351 3.70463,-10.31877 6.7818,-19.10058 3.07717,-8.78181 7.62395,-21.6867 10.10396,-28.67753 l 4.5091,-12.7106 4.79007,0.31731 c 2.63455,0.17453 4.83563,0.36283 4.89131,0.41845 0.1222,0.1221 10.59484,29.30163 17.50748,48.78047 2.74402,7.73226 4.87076,14.25019 4.72609,14.48428 -0.40547,0.65606 -6.85985,0.52961 -7.38238,-0.14463 -0.24306,-0.31364 -1.53742,-4.01156 -2.87636,-8.21761 l -2.43444,-7.64737 -15.07132,0.1201 -15.07133,0.1201 -2.47067,7.75536 c -1.35886,4.26545 -2.69951,7.90619 -2.97922,8.09053 -0.72387,0.47707 -6.21103,0.43046 -6.21103,-0.0528 z m 37.15043,-21.48433 c 0.81277,-0.30901 1.17019,-0.78331 1.17019,-1.55282 0,-2.38626 -5.09592,-18.16607 -9.18876,-28.45348 -2.11906,-5.32629 -2.95367,-5.88452 -4.43337,-2.96529 -1.25071,2.46746 -10.55636,31.11717 -10.55636,32.5003 0,0.21967 0.56455,0.48492 1.25455,0.58945 2.65894,0.40279 20.64043,0.30513 21.75375,-0.11816 z"
       id="path948"
       transform="scale(0.26458333)" /><path
       style="fill:#ffffff;stroke-width:0.456198;stroke:none;stroke-opacity:1"
       d="m 446.38967,713.53971 c -7.28293,-2.30329 -13.28184,-9.47075 -15.82942,-18.91289 -0.81045,-3.00378 -0.93388,-4.72462 -0.89075,-12.41868 0.0616,-10.98297 0.53775,-14.61574 2.404,-18.33967 3.07004,-6.12597 6.86536,-10.39879 11.15506,-12.55848 6.50001,-3.27249 13.1294,-3.86266 22.32142,-1.98712 7.34098,1.49785 8.89586,2.14019 8.89586,3.675 0,0.68401 -0.26824,1.61051 -0.59609,2.05887 -0.55679,0.76145 -1.0005,0.77893 -6.72892,0.2651 -10.43821,-0.9363 -14.80524,-0.83546 -18.12947,0.41862 -3.69861,1.39532 -6.94919,4.2946 -8.27791,7.3833 -1.97078,4.58121 -2.44468,8.1891 -2.45153,18.66404 -0.006,8.56358 0.11514,10.25136 0.95148,13.30004 1.81489,6.61579 4.28181,10.1412 8.5928,12.27978 2.04363,1.01379 2.77481,1.10776 8.61982,1.10776 4.57344,0 7.39058,-0.23551 9.92231,-0.82947 l 3.53553,-0.82946 v -10.91763 -10.91764 h 3.88513 3.88514 l -0.1215,12.17975 -0.1215,12.17975 -5.24628,1.70032 c -8.6881,2.81583 -20.99886,4.00926 -25.77518,2.49871 z"
       id="path950"
       transform="scale(0.26458333)" /><path
       style="fill:#ffffff;stroke-width:0.456198;stroke:none;stroke-opacity:1"
       d="m 492.69376,681.3316 v -32.39005 l 5.58842,8.4e-4 c 3.07364,4.6e-4 11.59313,0.13618 18.93222,0.30159 l 13.34379,0.30076 v 2.13585 2.13585 l -7.60013,0.29974 c -4.18007,0.16486 -10.74932,0.29974 -14.59833,0.29974 h -6.99821 v 11.17685 11.17685 h 14.37023 14.37024 v 2.96529 2.96528 h -14.37024 -14.37023 v 13.00164 13.00164 h 14.82643 14.82643 v 2.50909 2.50909 h -19.16031 -19.16031 z"
       id="path952"
       transform="scale(0.26458333)" /><path
       style="fill:#ffffff;stroke-width:0.456198;stroke:none;stroke-opacity:1"
       d="m 544.76663,681.82575 c 0.089,-17.54274 0.27543,-32.00951 0.41432,-32.14837 0.1389,-0.13886 2.78102,-0.30991 5.87138,-0.3801 l 5.61885,-0.12763 10.57255,21.8975 c 15.16274,31.40454 16.51173,33.89091 17.72784,32.67479 0.88899,-0.88898 1.17786,-8.45667 1.21034,-31.70727 l 0.0324,-23.21097 2.84846,0.32226 c 1.56666,0.17725 2.89366,0.36746 2.94889,0.42269 0.0552,0.0552 0.2437,14.51226 0.41881,32.12671 l 0.31838,32.02629 h -6.03921 -6.03921 l -5.48304,-11.2909 c -11.42087,-23.51834 -20.44644,-41.44882 -21.52817,-42.76855 -0.61697,-0.75273 -1.2841,-1.20756 -1.4825,-1.01074 -0.8091,0.80264 -1.01445,6.72634 -1.05115,30.32145 l -0.0385,24.74874 h -3.24113 -3.24113 z"
       id="path954"
       transform="scale(0.26458333)" /><path
       style="fill:#ffffff;stroke-width:0.456198;stroke:none;stroke-opacity:1"
       d="m 625.17195,713.53087 c -6.7201,-2.10331 -14.90886,-12.42399 -16.1369,-20.33812 -0.59183,-3.81402 -0.60369,-20.11437 -0.017,-23.31788 0.24753,-1.35152 1.49916,-4.58521 2.78139,-7.18598 3.9429,-7.99746 9.27471,-12.32046 17.29747,-14.02471 5.06129,-1.07515 12.64896,-0.47306 18.84221,1.49516 l 2.19099,0.6963 -0.1381,1.89419 -0.1381,1.89419 -9.58015,0.0347 c -10.4925,0.038 -12.08404,0.2994 -15.46631,2.53972 -5.88125,3.89558 -8.33103,11.87736 -7.91894,25.80122 0.66071,22.32473 7.59448,28.37472 27.6349,24.11255 4.95348,-1.0535 6.37697,-0.95906 7.02634,0.46616 0.76221,1.67287 0.081,2.50301 -3.10722,3.7863 -6.27792,2.52697 -18.46332,3.65078 -23.27061,2.14616 z"
       id="path956"
       transform="scale(0.26458333)" /><path
       style="fill:#ffffff;stroke-width:0.456198;stroke:none;stroke-opacity:1"
       d="m 683.38449,698.67374 v -15.04792 l -8.80268,-14.4909 c -9.23191,-15.19749 -11.72623,-19.43192 -11.72623,-19.90676 0,-0.15764 1.80412,-0.28661 4.00915,-0.28661 h 4.00915 l 5.63706,9.9223 c 7.12337,12.5385 11.22054,18.81817 12.2779,18.81817 1.23069,0 4.65595,-5.45953 13.95923,-22.24964 1.42807,-2.5773 3.07973,-5.00264 3.67037,-5.38964 1.11598,-0.73122 6.16272,-1.47279 6.16272,-0.90555 0,0.17781 -3.4567,6.10859 -7.68154,13.17951 -4.22485,7.07093 -8.84385,14.93985 -10.26445,17.4865 l -2.58292,4.63027 v 14.64409 14.64409 h -4.33388 -4.33388 z"
       id="path958"
       transform="scale(0.26458333)" /></g></svg>
